<?xml version="1.0" standalone="no"?>
<!DOCTYPE svg PUBLIC "-//W3C//DTD SVG 1.1//EN" "http://www.w3.org/Graphics/SVG/1.1/DTD/svg11.dtd" >
<svg xmlns="http://www.w3.org/2000/svg">
<metadata></metadata>
<defs>
<font id="dragonslapperregular" horiz-adv-x="1024" >
<font-face units-per-em="2048" ascent="1638" descent="-410" />
<missing-glyph horiz-adv-x="512" />
<glyph horiz-adv-x="2048" />
<glyph horiz-adv-x="2048" />
<glyph unicode="&#xd;" horiz-adv-x="2048" />
<glyph unicode=" "  horiz-adv-x="512" />
<glyph unicode="&#x09;" horiz-adv-x="512" />
<glyph unicode="&#xa0;" horiz-adv-x="512" />
<glyph unicode="!" horiz-adv-x="384" d="M0 0v256h256v-256h-256zM0 384v1152h256v-1152h-256z" />
<glyph unicode="&#x22;" horiz-adv-x="512" d="M-128 1536h768l-256 -256l-128 128l-128 -128z" />
<glyph unicode="#" horiz-adv-x="1664" d="M0 256v256h320l128 256h-192v256h320l128 256h320l-128 -256h192l128 256h320l-128 -256h128v-256h-256l-128 -256h128v-256h-256l-128 -256h-320l128 256h-192l-128 -256h-320l128 256h-192zM640 512h192l128 256h-192z" />
<glyph unicode="$" d="M0 256l256 256v-128q0 -54 36 -92q38 -36 92 -36h128l64 64l-576 576v128l256 256v128h128v-128h128v128h128v-128l256 -256l-256 -256v128q0 52 -38 90t-90 38h-128l-64 -64l576 -576v-128l-256 -256v-128h-128v128h-128v-128h-128v128z" />
<glyph unicode="%" horiz-adv-x="1408" d="M-256 1536l512 512l512 -512l-512 -512zM-64 -256l1024 2048h320l-1024 -2048h-320zM128 1536l128 -128l128 128l-128 128zM512 0l512 512l512 -512l-512 -512zM896 0l128 -128l128 128l-128 128z" />
<glyph unicode="&#x26;" horiz-adv-x="1536" d="M-128 512v256l768 768h512l-192 -384v128h-192l-512 -512h512v128l256 128v-256h256l128 128l-64 -128l-192 -384l-64 128h-64v-512h256l256 128l-64 -128l-192 -384l-64 128h-576zM256 512l512 -512v512h-512z" />
<glyph unicode="'" horiz-adv-x="256" d="M-128 1536h512l-256 -256z" />
<glyph unicode="(" horiz-adv-x="768" d="M0 128v1024l384 384h256v-256h-128l-256 -256v-768l256 -256h128v-256h-256z" />
<glyph unicode=")" horiz-adv-x="768" d="M0 0h128l256 256v768l-256 256h-128v256h256l384 -384v-1024l-384 -384h-256v256z" />
<glyph unicode="*" horiz-adv-x="640" d="M0 896l96 192l-96 192h128l128 128l128 -128h128l-96 -192l96 -192h-128l-128 -128l-128 128h-128z" />
<glyph unicode="+" horiz-adv-x="896" d="M0 512v256h256v256h256v-256h256v-256h-256v-256h-256v256h-256z" />
<glyph unicode="," horiz-adv-x="384" d="M0 -256v512h256v-256z" />
<glyph unicode="-" horiz-adv-x="896" d="M0 512v256h768v-256h-768z" />
<glyph unicode="." horiz-adv-x="384" d="M0 0v256h256v-256h-256z" />
<glyph unicode="/" horiz-adv-x="1152" d="M-64 -256l896 1792h320l-896 -1792h-320z" />
<glyph unicode="0" horiz-adv-x="1664" d="M-128 640l896 896l896 -896l-896 -896zM256 640l512 -512l512 512l-512 512z" />
<glyph unicode="1" horiz-adv-x="640" d="M0 768v384l512 512h128q-54 0 -92 -38q-36 -38 -36 -90v-1664q0 -52 36 -90q38 -38 92 -38h-512q52 0 90 38t38 90v1152z" />
<glyph unicode="2" horiz-adv-x="1280" d="M0 -256v512l896 896l-128 128h-384q-54 0 -92 -38q-36 -38 -36 -90v-128l-256 256l256 256h640l256 -256v-256l-896 -896v-128h512q52 0 90 36q38 38 38 92v128l256 -256v-256h-1152z" />
<glyph unicode="3" horiz-adv-x="1408" d="M-128 126l256 -126h640l128 128l-384 384h-192l-64 -128l-192 384h-2l-62 126l128 -126h384l384 384l-128 128h-576v-128l-192 384h896l384 -384l-512 -512l512 -512l-384 -384h-704l-64 -128l-192 384z" />
<glyph unicode="4" horiz-adv-x="1280" d="M-256 512l1152 1152v-896h128q52 0 90 36q38 38 38 92v-512q0 52 -38 90t-90 38h-128v-640q0 -52 36 -90q38 -38 92 -38h-512q52 0 90 38t38 90v640h-896zM384 768h256v256z" />
<glyph unicode="5" horiz-adv-x="1280" d="M0 0l256 256v-128q0 -54 36 -92q38 -36 92 -36h384l128 128l-896 896v512h1152v-256l-256 -256v128q0 52 -38 90t-90 38h-512v-128l896 -896v-256l-256 -256h-640z" />
<glyph unicode="6" horiz-adv-x="1280" d="M0 0v1280l256 256h640l256 -256l-256 -256v128q0 52 -38 90t-90 38h-384l-128 -128v-384h640l256 -256v-512l-256 -256h-640zM256 128q0 -54 36 -92q38 -36 92 -36h384l128 128v256l-128 128h-512v-384z" />
<glyph unicode="7" horiz-adv-x="1152" d="M-128 1662l128 -126h1152l-896 -1792h-320l768 1536h-512l-64 -128l-192 384z" />
<glyph unicode="8" horiz-adv-x="1280" d="M-128 128l512 512l-512 512l384 384h640l384 -384l-512 -512l512 -512l-384 -384h-640zM256 128l128 -128h384l128 128l-320 320zM256 1152l320 -320l320 320l-128 128h-384z" />
<glyph unicode="9" horiz-adv-x="1280" d="M0 0l256 256v-128q0 -54 36 -92q38 -36 92 -36h384l128 128v384h-640l-256 256v512l256 256h640l256 -256v-1280l-256 -256h-640zM256 896l128 -128h512v384q0 52 -38 90t-90 38h-384l-128 -128v-256z" />
<glyph unicode=":" horiz-adv-x="384" d="M0 256v256h256v-256h-256zM0 768v256h256v-256h-256z" />
<glyph unicode=";" horiz-adv-x="384" d="M0 0v512h256v-256zM0 768v256h256v-256h-256z" />
<glyph unicode="&#x3c;" horiz-adv-x="768" d="M0 640l640 640v-384l-256 -256l256 -256v-384z" />
<glyph unicode="=" horiz-adv-x="896" d="M0 256v256h768v-256h-768zM0 768v256h768v-256h-768z" />
<glyph unicode="&#x3e;" horiz-adv-x="768" d="M0 0v384l256 256l-256 256v384l640 -640z" />
<glyph unicode="?" horiz-adv-x="1280" d="M0 0v256h256v-256h-256zM0 384v384h768l128 128v256l-128 128h-384q-54 0 -92 -38q-36 -38 -36 -90l-256 -256v384l256 256h640l256 -256v-512l-256 -256h-640v-128h-256z" />
<glyph unicode="@" horiz-adv-x="1536" d="M-128 640l896 896l896 -896l-256 -256h-768v256h640l-512 512l-512 -512l512 -512v-384z" />
<glyph unicode="A" horiz-adv-x="1408" d="M-320 -256l746 1492l-298 300h512l896 -1792h-512l128 128l-180 358l-972 -486h-320zM212 170l632 316l-236 474z" />
<glyph unicode="B" horiz-adv-x="1152" d="M-128 -256q54 0 92 38q36 38 36 90v1536q0 52 -36 90q-38 38 -92 38h384v-128q0 52 36 90q38 38 92 38h384l384 -384l-512 -512l512 -512l-384 -384h-384q-54 0 -92 38q-36 38 -36 90v-128h-384zM256 0h384l128 128l-512 512l512 512l-128 128h-384v-1280z" />
<glyph unicode="C" horiz-adv-x="1280" d="M0 512v256l768 768h512l-192 -384v128h-192l-640 -640l640 -640h256l256 128l-64 -128l-128 -256h-448z" />
<glyph unicode="D" horiz-adv-x="1280" d="M-512 -256h512l256 256h-256q52 0 90 36q38 38 38 92v640q0 52 -38 90t-90 38l384 384v-1152l640 640l-512 512h-1024l384 384q0 -54 38 -92q38 -36 90 -36h640l768 -768l-1280 -1280h-384z" />
<glyph unicode="E" horiz-adv-x="1280" d="M-128 512v256l768 768h512l-192 -384v128h-192l-512 -512h768l128 128l-64 -128l-192 -384l-64 128h-576l512 -512h256l256 128l-64 -128l-192 -384l-64 128h-320z" />
<glyph unicode="F" d="M-128 -256q54 0 92 38q36 38 36 90v1536q0 52 -36 90q-38 38 -92 38h1088l128 -256l64 -128l-256 128h-640v-512h640l128 128l-64 -128l-192 -384l-64 128h-448v-640q0 -52 36 -90q38 -38 92 -38h-512z" />
<glyph unicode="G" horiz-adv-x="1408" d="M0 512v256l768 768h512l-192 -384v128h-192l-640 -640l640 -640h128v512h-256l-256 256h768v-1024h-512z" />
<glyph unicode="H" horiz-adv-x="1280" d="M-128 -256q54 0 92 38q36 38 36 90v1408q0 52 -36 90q-38 38 -92 38h512q-54 0 -92 -38q-36 -38 -36 -90v-512h640v640q0 52 -38 90t-90 38h512q-54 0 -92 -38q-36 -38 -36 -90v-1408q0 -52 36 -90q38 -38 92 -38h-512q52 0 90 38t38 90v512h-640v-640q0 -52 36 -90 q38 -38 92 -38h-512z" />
<glyph unicode="I" horiz-adv-x="384" d="M-128 -256q54 0 92 38q36 38 36 90v1536q0 52 -36 90q-38 38 -92 38h512q-54 0 -92 -38q-36 -38 -36 -90v-1536q0 -52 36 -90q38 -38 92 -38h-512z" />
<glyph unicode="J" horiz-adv-x="1152" d="M-256 -384l1024 1024v640h-512l-256 -128l62 128h2l128 256h960q-54 0 -92 -38q-36 -38 -36 -90v-896l-1152 -1152z" />
<glyph unicode="K" horiz-adv-x="1152" d="M-128 -256q54 0 92 38q36 38 36 90v1408q0 52 -36 90q-38 38 -92 38h384v-512l512 512q0 52 -38 90t-90 38h640l-896 -896l1024 -1024h-640q52 0 90 38t38 90l-640 640v-640h-384z" />
<glyph unicode="L" d="M-128 -256q54 0 92 38q36 38 36 90v1536q0 52 -36 90q-38 38 -92 38h512q-54 0 -92 -38q-36 -38 -36 -90v-1408h512l256 128l-64 -128l-128 -256h-960z" />
<glyph unicode="M" horiz-adv-x="1408" d="M-128 -256q54 0 92 38q36 38 36 90v1536q0 52 -36 90q-38 38 -92 38h576l-64 -128l256 -512l256 512l-64 128h576q-54 0 -92 -38q-36 -38 -36 -90v-1536q0 -52 36 -90q38 -38 92 -38h-512q52 0 90 38t38 90v1152l-384 -768l-384 768v-1152q0 -52 36 -90q38 -38 92 -38 h-512z" />
<glyph unicode="N" horiz-adv-x="1280" d="M-128 -128q54 0 92 38q36 38 36 90v1664h256l640 -1280v1024q0 52 -38 90t-90 38h512q-54 0 -92 -38q-36 -38 -36 -90v-1664h-256l-640 1280v-1024q0 -52 36 -90q38 -38 92 -38h-512z" />
<glyph unicode="O" horiz-adv-x="1664" d="M-128 640l896 896l896 -896l-896 -896zM256 640l512 -512l512 512l-512 512z" />
<glyph unicode="P" d="M-128 -256q54 0 92 38q36 38 36 90v1536q0 52 -36 90q-38 38 -92 38h384v-128q0 52 36 90q38 38 92 38h384l384 -384l-640 -640h-256v-640q0 -52 36 -90q38 -38 92 -38h-512zM256 768h128l384 384l-128 128h-384v-512z" />
<glyph unicode="Q" horiz-adv-x="1664" d="M-128 640l896 896l896 -896l-768 -768v-192l128 -64l-384 -192l-128 -64l128 128v384zM256 640l512 -512l512 512l-512 512z" />
<glyph unicode="R" horiz-adv-x="1152" d="M-128 -256q54 0 92 38q36 38 36 90v1536q0 52 -36 90q-38 38 -92 38h384v-128q0 52 36 90q38 38 92 38h384l384 -384l-576 -576l960 -960l-128 -256l-1152 1152v-640q0 -52 36 -90q38 -38 92 -38h-512zM256 640l512 512l-128 128h-384v-640z" />
<glyph unicode="S" horiz-adv-x="1280" d="M0 0l256 256v-128q0 -54 36 -92q38 -36 92 -36h384l128 128l-896 896v256l256 256h640l256 -256l-256 -256v128q0 52 -38 90t-90 38h-384l-128 -128l896 -896v-256l-256 -256h-640z" />
<glyph unicode="T" horiz-adv-x="1152" d="M-128 1152l64 128l128 256h896l128 -256l64 -128l-256 128h-256v-1408q0 -52 36 -90q38 -38 92 -38h-512q52 0 90 38t38 90v1408h-256z" />
<glyph unicode="U" horiz-adv-x="1280" d="M-128 1536h384v-1280l256 -256h384v1536h384q-54 0 -92 -38q-36 -38 -36 -90v-1664h-768l-384 384v1280q0 52 -36 90q-38 38 -92 38z" />
<glyph unicode="V" horiz-adv-x="1536" d="M-128 1536h512q-54 0 -92 -38q-36 -38 -36 -90l512 -1024l512 1024q0 52 -38 90t-90 38h512l-896 -1792z" />
<glyph unicode="W" horiz-adv-x="1408" d="M-128 -256q54 0 92 38q36 38 36 90v1536q0 52 -36 90q-38 38 -92 38h512q-54 0 -92 -38q-36 -38 -36 -90v-1152l384 768l384 -768v1152q0 52 -38 90t-90 38h512q-54 0 -92 -38q-36 -38 -36 -90v-1536q0 -52 36 -90q38 -38 92 -38h-576l64 128l-256 512l-256 -512l64 -128 h-576z" />
<glyph unicode="X" d="M-128 -256l480 960l-416 832h320l256 -512l256 512h320l-416 -832l480 -960h-512q52 0 90 38t38 90l-256 512l-256 -512q0 -52 36 -90q38 -38 92 -38h-512z" />
<glyph unicode="Y" horiz-adv-x="1152" d="M-128 1536h512q-54 0 -92 -38q-36 -38 -36 -90l256 -512l256 512q0 52 -38 90t-90 38h512l-512 -1024v-640q0 -52 36 -90q38 -38 92 -38h-512q52 0 90 38t38 90v640z" />
<glyph unicode="Z" horiz-adv-x="1152" d="M-128 1662l128 -126h1152l-768 -1536h768l128 128l-64 -128l-192 -384l-64 128h-1024l768 1536h-512l-64 -128l-192 384z" />
<glyph unicode="[" horiz-adv-x="768" d="M0 -256v1792h640v-256h-384v-1280h384v-256h-640z" />
<glyph unicode="\" horiz-adv-x="1152" d="M-128 1536h320l896 -1792h-320z" />
<glyph unicode="]" horiz-adv-x="768" d="M0 0h384v1280h-384v256h640v-1792h-640v256z" />
<glyph unicode="^" horiz-adv-x="1152" d="M0 1408l512 512l512 -512h-384l-128 128l-128 -128h-384z" />
<glyph unicode="_" d="M0 0v256h896v-256h-896z" />
<glyph unicode="`" horiz-adv-x="256" d="M-128 1536h512l-256 -256z" />
<glyph unicode="a" d="M-192 0l490 980l-298 300h512l640 -1280h-512l128 128l-78 152l-562 -280h-320zM340 426l222 110l-82 168z" />
<glyph unicode="b" d="M-128 0q54 0 92 36q36 38 36 92v1024q0 52 -36 90q-38 38 -92 38h384v-128q0 52 36 90q38 38 92 38h384l256 -256l-384 -384l384 -384l-256 -256h-384q-54 0 -92 36q-36 38 -36 92v-128h-384zM256 256h384l-384 384l384 384h-384v-768z" />
<glyph unicode="c" horiz-adv-x="1152" d="M0 512v256l512 512h512l-192 -384v128h-192l-384 -384l384 -384h256l256 128l-64 -128l-128 -256h-448z" />
<glyph unicode="d" d="M-128 0q54 0 92 36q36 38 36 92v1024q0 52 -36 90q-38 38 -92 38h640l512 -512v-256l-512 -512h-640zM256 256h128l384 384l-384 384h-128v-768z" />
<glyph unicode="e" d="M-128 512v256l512 512h512l-192 -384v128h-192l-256 -256h512l128 128l-64 -128l-192 -384l-64 128h-320l256 -256h256l256 128l-64 -128l-192 -384l-64 128h-320z" />
<glyph unicode="f" horiz-adv-x="896" d="M-128 0q54 0 92 36q36 38 36 92v1024q0 52 -36 90q-38 38 -92 38h832l128 -256l64 -128l-256 128h-384v-256h384l128 128l-64 -128l-192 -384l-64 128h-192v-384q0 -54 36 -92q38 -36 92 -36h-512z" />
<glyph unicode="g" horiz-adv-x="1152" d="M0 512v256l512 512h512l-192 -384v128h-192l-384 -384l384 -384h128v256l-256 256h512v-768h-512z" />
<glyph unicode="h" d="M-128 0q54 0 92 36q36 38 36 92v1024q0 52 -36 90q-38 38 -92 38h512q-54 0 -92 -38q-36 -38 -36 -90v-384h384v384q0 52 -38 90t-90 38h512q-54 0 -92 -38q-36 -38 -36 -90v-1024q0 -54 36 -92q38 -36 92 -36h-512q52 0 90 36q38 38 38 92v384h-384v-384q0 -54 36 -92 q38 -36 92 -36h-512z" />
<glyph unicode="i" horiz-adv-x="384" d="M-128 0q54 0 92 36q36 38 36 92v1024q0 52 -36 90q-38 38 -92 38h512q-54 0 -92 -38q-36 -38 -36 -90v-1024q0 -54 36 -92q38 -36 92 -36h-512z" />
<glyph unicode="j" horiz-adv-x="896" d="M-256 -128l768 768v384h-256l-256 -128l62 128h2l128 256h704q-54 0 -92 -38q-36 -38 -36 -90v-640l-896 -896z" />
<glyph unicode="k" d="M-128 0q54 0 92 36q36 38 36 92v1024q0 52 -36 90q-38 38 -92 38h384v-384l256 256q0 52 -38 90t-90 38h640l-640 -640l640 -640h-640q52 0 90 36q38 38 38 92l-256 256v-384h-384z" />
<glyph unicode="l" horiz-adv-x="768" d="M-128 0q54 0 92 36q36 38 36 92v1024q0 52 -36 90q-38 38 -92 38h512q-54 0 -92 -38q-36 -38 -36 -90v-896h256l256 128l-64 -128l-128 -256h-704z" />
<glyph unicode="m" horiz-adv-x="1152" d="M-128 0q54 0 92 36q36 38 36 92v1024q0 52 -36 90q-38 38 -92 38h576l-64 -128l128 -256l128 256l-64 128h576q-54 0 -92 -38q-36 -38 -36 -90v-1024q0 -54 36 -92q38 -36 92 -36h-512q52 0 90 36q38 38 38 92v640l-256 -512l-256 512v-640q0 -54 36 -92q38 -36 92 -36 h-512z" />
<glyph unicode="n" d="M-128 0q54 0 92 36q36 38 36 92v1152h320l320 -640v512q0 52 -38 90t-90 38h512q-54 0 -92 -38q-36 -38 -36 -90v-1152h-256l-384 768v-640q0 -54 36 -92q38 -36 92 -36h-512z" />
<glyph unicode="o" horiz-adv-x="1152" d="M-128 640l640 640l640 -640l-640 -640zM256 640l256 -256l256 256l-256 256z" />
<glyph unicode="p" d="M-128 0q54 0 92 36q36 38 36 92v1024q0 52 -36 90q-38 38 -92 38h384v-128q0 52 36 90q38 38 92 38h384l256 -256l-512 -512h-256v-384q0 -54 36 -92q38 -36 92 -36h-512zM256 768h128l256 256h-384v-256z" />
<glyph unicode="q" horiz-adv-x="1152" d="M-128 640l640 640l640 -640l-512 -512v-64l128 -64l-384 -192l-128 -64l128 128v256zM256 640l256 -256l256 256l-256 256z" />
<glyph unicode="r" horiz-adv-x="1152" d="M-128 0q54 0 92 36q36 38 36 92v1024q0 52 -36 90q-38 38 -92 38h384v-128q0 52 36 90q38 38 92 38h384l256 -256l-448 -448l704 -704l-128 -256l-896 896v-384q0 -54 36 -92q38 -36 92 -36h-512zM256 640l384 384h-384v-384z" />
<glyph unicode="s" d="M0 256l256 256v-128q0 -54 36 -92q38 -36 92 -36h128l64 64l-576 576v128l256 256h384l256 -256l-256 -256v128q0 52 -38 90t-90 38h-128l-64 -64l576 -576v-128l-256 -256h-384z" />
<glyph unicode="t" horiz-adv-x="896" d="M-128 896l64 128l128 256h640l128 -256l64 -128l-256 128h-128v-896q0 -54 36 -92q38 -36 92 -36h-512q52 0 90 36q38 38 38 92v896h-128z" />
<glyph unicode="u" d="M-128 1280h384v-768l256 -256h128v1024h384q-54 0 -92 -38q-36 -38 -36 -90v-1152h-512l-384 384v768q0 52 -36 90q-38 38 -92 38z" />
<glyph unicode="v" horiz-adv-x="1152" d="M-128 1280h512q-54 0 -92 -38q-36 -38 -36 -90l256 -512l256 512q0 52 -38 90t-90 38h512l-640 -1280z" />
<glyph unicode="w" horiz-adv-x="1152" d="M-128 0q54 0 92 36q36 38 36 92v1024q0 52 -36 90q-38 38 -92 38h512q-54 0 -92 -38q-36 -38 -36 -90v-640l256 512l256 -512v640q0 52 -38 90t-90 38h512q-54 0 -92 -38q-36 -38 -36 -90v-1024q0 -54 36 -92q38 -36 92 -36h-576l64 128l-128 256l-128 -256l64 -128h-576 z" />
<glyph unicode="x" horiz-adv-x="896" d="M-128 0l352 704l-288 576h320l128 -256l128 256h320l-288 -576l352 -704h-512q52 0 90 36q38 38 38 92l-128 256l-128 -256q0 -54 36 -92q38 -36 92 -36h-512z" />
<glyph unicode="y" horiz-adv-x="896" d="M-128 1280h512q-54 0 -92 -38q-36 -38 -36 -90l128 -256l128 256q0 52 -38 90t-90 38h512l-384 -768v-384q0 -54 36 -92q38 -36 92 -36h-512q52 0 90 36q38 38 38 92v384z" />
<glyph unicode="z" d="M-128 1408l128 -128h896l-512 -1024h512l128 128l-64 -128l-192 -384l-64 128h-768l512 1024h-256l-64 -128l-192 384z" />
<glyph unicode="{" d="M0 512l256 256v384l384 384h256v-256h-128l-256 -256v-768l256 -256h128v-256h-256l-384 384v384h-256z" />
<glyph unicode="|" horiz-adv-x="384" d="M0 -256v1792h256v-1792h-256z" />
<glyph unicode="}" d="M0 0h128l256 256v768l-256 256h-128v256h256l384 -384v-384h256l-256 -256v-384l-384 -384h-256v256z" />
<glyph unicode="~" horiz-adv-x="896" d="M0 512v256h768v-256h-768z" />
<glyph unicode="&#xad;" horiz-adv-x="896" d="M0 512v256h768v-256h-768z" />
<glyph unicode="&#x2000;" />
<glyph unicode="&#x2001;" horiz-adv-x="2048" />
<glyph unicode="&#x2002;" />
<glyph unicode="&#x2003;" horiz-adv-x="2048" />
<glyph unicode="&#x2004;" horiz-adv-x="682" />
<glyph unicode="&#x2005;" horiz-adv-x="512" />
<glyph unicode="&#x2006;" horiz-adv-x="341" />
<glyph unicode="&#x2007;" horiz-adv-x="341" />
<glyph unicode="&#x2008;" horiz-adv-x="256" />
<glyph unicode="&#x2009;" horiz-adv-x="409" />
<glyph unicode="&#x200a;" horiz-adv-x="113" />
<glyph unicode="&#x2010;" horiz-adv-x="896" d="M0 512v256h768v-256h-768z" />
<glyph unicode="&#x2011;" horiz-adv-x="896" d="M0 512v256h768v-256h-768z" />
<glyph unicode="&#x2012;" horiz-adv-x="896" d="M0 512v256h768v-256h-768z" />
<glyph unicode="&#x2013;" horiz-adv-x="1152" d="M0 512v256h1024v-256h-1024z" />
<glyph unicode="&#x2014;" horiz-adv-x="2176" d="M0 512v256h2048v-256h-2048z" />
<glyph unicode="&#x2018;" horiz-adv-x="256" d="M-128 1536h512l-256 -256z" />
<glyph unicode="&#x2019;" horiz-adv-x="256" d="M-128 1536h512l-256 -256z" />
<glyph unicode="&#x201c;" horiz-adv-x="512" d="M-128 1536h768l-256 -256l-128 128l-128 -128z" />
<glyph unicode="&#x201d;" horiz-adv-x="512" d="M-128 1536h768l-256 -256l-128 128l-128 -128z" />
<glyph unicode="&#x202f;" horiz-adv-x="409" />
<glyph unicode="&#x205f;" horiz-adv-x="512" />
<glyph unicode="&#xe000;" horiz-adv-x="1280" d="M0 0v1280h1280v-1280h-1280z" />
</font>
</defs>
</svg>
